<svg xmlns="http://www.w3.org/2000/svg" xmlns:xlink="http://www.w3.org/1999/xlink" width="500" zoomAndPan="magnify" viewBox="0 0 375 374.999991" height="500" preserveAspectRatio="xMidYMid meet" version="1.0"><defs><g/><clipPath id="ec6f3e0498"><path d="M 50 165.355469 L 111.769531 165.355469 L 111.769531 211.855469 L 50 211.855469 Z M 50 165.355469 " clip-rule="nonzero"/></clipPath><clipPath id="ce0ca2c6d5"><path d="M 17.269531 165.355469 L 85 165.355469 L 85 211.855469 L 17.269531 211.855469 Z M 17.269531 165.355469 " clip-rule="nonzero"/></clipPath><clipPath id="e6878471ad"><path d="M 328.164062 162.285156 L 334.164062 162.285156 L 334.164062 168.285156 L 328.164062 168.285156 Z M 328.164062 162.285156 " clip-rule="nonzero"/></clipPath></defs><g clip-path="url(#ec6f3e0498)"><path fill="#ff1616" d="M 97.171875 165.355469 L 111.765625 165.355469 L 111.765625 211.84375 L 97.171875 211.84375 L 97.171875 185.617188 L 70.921875 211.84375 L 50.648438 211.84375 L 97.171875 165.355469 " fill-opacity="1" fill-rule="nonzero"/></g><g clip-path="url(#ce0ca2c6d5)"><path fill="#ffaa29" d="M 84.027344 165.355469 L 17.269531 211.84375 L 37.546875 211.84375 Z M 84.027344 165.355469 " fill-opacity="1" fill-rule="nonzero"/></g><g fill="#000000" fill-opacity="1"><g transform="translate(123.36371, 191.899982)"><g><path d="M 19.296875 -5.328125 L 7.765625 -5.328125 L 5.5625 0 L -0.3125 0 L 10.75 -24.828125 L 16.421875 -24.828125 L 27.53125 0 L 21.5 0 Z M 17.484375 -9.6875 L 13.546875 -19.1875 L 9.609375 -9.6875 Z M 17.484375 -9.6875 "/></g></g></g><g fill="#000000" fill-opacity="1"><g transform="translate(161.107364, 191.899982)"><g><path d="M 19.71875 -12.796875 L 24.96875 -12.796875 L 24.96875 -2.734375 C 23.625 -1.710938 22.0625 -0.929688 20.28125 -0.390625 C 18.507812 0.148438 16.726562 0.421875 14.9375 0.421875 C 12.351562 0.421875 10.03125 -0.125 7.96875 -1.21875 C 5.914062 -2.320312 4.304688 -3.847656 3.140625 -5.796875 C 1.972656 -7.742188 1.390625 -9.953125 1.390625 -12.421875 C 1.390625 -14.878906 1.972656 -17.082031 3.140625 -19.03125 C 4.304688 -20.976562 5.929688 -22.5 8.015625 -23.59375 C 10.097656 -24.695312 12.4375 -25.25 15.03125 -25.25 C 17.207031 -25.25 19.179688 -24.882812 20.953125 -24.15625 C 22.734375 -23.425781 24.226562 -22.363281 25.4375 -20.96875 L 21.75 -17.5625 C 19.96875 -19.425781 17.828125 -20.359375 15.328125 -20.359375 C 13.742188 -20.359375 12.332031 -20.023438 11.09375 -19.359375 C 9.863281 -18.703125 8.90625 -17.769531 8.21875 -16.5625 C 7.539062 -15.351562 7.203125 -13.972656 7.203125 -12.421875 C 7.203125 -10.878906 7.539062 -9.503906 8.21875 -8.296875 C 8.90625 -7.085938 9.859375 -6.144531 11.078125 -5.46875 C 12.296875 -4.800781 13.6875 -4.46875 15.25 -4.46875 C 16.90625 -4.46875 18.394531 -4.820312 19.71875 -5.53125 Z M 19.71875 -12.796875 "/></g></g></g><g fill="#000000" fill-opacity="1"><g transform="translate(199.028378, 191.899982)"><g><path d="M 13.96875 0.421875 C 10.425781 0.421875 7.664062 -0.554688 5.6875 -2.515625 C 3.71875 -4.484375 2.734375 -7.285156 2.734375 -10.921875 L 2.734375 -24.828125 L 8.484375 -24.828125 L 8.484375 -11.140625 C 8.484375 -6.691406 10.328125 -4.46875 14.015625 -4.46875 C 15.804688 -4.46875 17.175781 -5.003906 18.125 -6.078125 C 19.070312 -7.160156 19.546875 -8.847656 19.546875 -11.140625 L 19.546875 -24.828125 L 25.21875 -24.828125 L 25.21875 -10.921875 C 25.21875 -7.285156 24.226562 -4.484375 22.25 -2.515625 C 20.28125 -0.554688 17.519531 0.421875 13.96875 0.421875 Z M 13.96875 0.421875 "/></g></g></g><g fill="#000000" fill-opacity="1"><g transform="translate(237.552427, 191.899982)"><g><path d="M 18.765625 0 L 13.96875 -6.921875 L 8.6875 -6.921875 L 8.6875 0 L 2.9375 0 L 2.9375 -24.828125 L 13.6875 -24.828125 C 15.882812 -24.828125 17.789062 -24.457031 19.40625 -23.71875 C 21.03125 -22.988281 22.28125 -21.945312 23.15625 -20.59375 C 24.03125 -19.25 24.46875 -17.65625 24.46875 -15.8125 C 24.46875 -13.96875 24.023438 -12.378906 23.140625 -11.046875 C 22.253906 -9.710938 20.992188 -8.691406 19.359375 -7.984375 L 24.9375 0 Z M 18.65625 -15.8125 C 18.65625 -17.207031 18.207031 -18.273438 17.3125 -19.015625 C 16.414062 -19.765625 15.101562 -20.140625 13.375 -20.140625 L 8.6875 -20.140625 L 8.6875 -11.484375 L 13.375 -11.484375 C 15.101562 -11.484375 16.414062 -11.863281 17.3125 -12.625 C 18.207031 -13.382812 18.65625 -14.445312 18.65625 -15.8125 Z M 18.65625 -15.8125 "/></g></g></g><g fill="#000000" fill-opacity="1"><g transform="translate(274.196429, 191.899982)"><g><path d="M 2.9375 -24.828125 L 8.6875 -24.828125 L 8.6875 0 L 2.9375 0 Z M 2.9375 -24.828125 "/></g></g></g><g fill="#000000" fill-opacity="1"><g transform="translate(296.403093, 191.899982)"><g><path d="M 14.96875 0.421875 C 12.394531 0.421875 10.070312 -0.128906 8 -1.234375 C 5.925781 -2.347656 4.304688 -3.878906 3.140625 -5.828125 C 1.972656 -7.785156 1.390625 -9.984375 1.390625 -12.421875 C 1.390625 -14.847656 1.972656 -17.035156 3.140625 -18.984375 C 4.304688 -20.941406 5.925781 -22.472656 8 -23.578125 C 10.070312 -24.691406 12.394531 -25.25 14.96875 -25.25 C 17.539062 -25.25 19.851562 -24.691406 21.90625 -23.578125 C 23.96875 -22.472656 25.585938 -20.941406 26.765625 -18.984375 C 27.953125 -17.035156 28.546875 -14.847656 28.546875 -12.421875 C 28.546875 -9.984375 27.953125 -7.785156 26.765625 -5.828125 C 25.585938 -3.878906 23.96875 -2.347656 21.90625 -1.234375 C 19.851562 -0.128906 17.539062 0.421875 14.96875 0.421875 Z M 14.96875 -4.46875 C 16.4375 -4.46875 17.757812 -4.800781 18.9375 -5.46875 C 20.125 -6.144531 21.050781 -7.085938 21.71875 -8.296875 C 22.394531 -9.503906 22.734375 -10.878906 22.734375 -12.421875 C 22.734375 -13.953125 22.394531 -15.320312 21.71875 -16.53125 C 21.050781 -17.738281 20.125 -18.675781 18.9375 -19.34375 C 17.757812 -20.019531 16.4375 -20.359375 14.96875 -20.359375 C 13.5 -20.359375 12.171875 -20.019531 10.984375 -19.34375 C 9.804688 -18.675781 8.878906 -17.738281 8.203125 -16.53125 C 7.535156 -15.320312 7.203125 -13.953125 7.203125 -12.421875 C 7.203125 -10.878906 7.535156 -9.503906 8.203125 -8.296875 C 8.878906 -7.085938 9.804688 -6.144531 10.984375 -5.46875 C 12.171875 -4.800781 13.5 -4.46875 14.96875 -4.46875 Z M 14.96875 -4.46875 "/></g></g></g><path fill="#000000" d="M 331.21875 165.355469 L 330.597656 165.355469 L 330.597656 164.210938 L 331.21875 164.210938 C 331.6875 164.210938 331.929688 164.417969 331.929688 164.78125 C 331.929688 165.140625 331.6875 165.355469 331.21875 165.355469 Z M 332.46875 164.78125 C 332.46875 164.144531 332 163.757812 331.246094 163.757812 L 330.0625 163.757812 L 330.0625 166.628906 L 330.597656 166.628906 L 330.597656 165.792969 L 331.246094 165.792969 C 331.28125 165.792969 331.316406 165.792969 331.355469 165.789062 L 331.941406 166.628906 L 332.515625 166.628906 L 331.855469 165.6875 C 332.246094 165.535156 332.46875 165.214844 332.46875 164.78125 " fill-opacity="1" fill-rule="nonzero"/><g clip-path="url(#e6878471ad)"><path fill="#000000" d="M 331.164062 167.765625 C 329.796875 167.765625 328.6875 166.652344 328.6875 165.285156 C 328.6875 163.917969 329.796875 162.804688 331.164062 162.804688 C 332.53125 162.804688 333.644531 163.917969 333.644531 165.285156 C 333.644531 166.652344 332.53125 167.765625 331.164062 167.765625 Z M 331.164062 162.285156 C 329.511719 162.285156 328.164062 163.632812 328.164062 165.285156 C 328.164062 166.941406 329.511719 168.285156 331.164062 168.285156 C 332.820312 168.285156 334.164062 166.941406 334.164062 165.285156 C 334.164062 163.632812 332.820312 162.285156 331.164062 162.285156 " fill-opacity="1" fill-rule="nonzero"/></g><g fill="#000000" fill-opacity="1"><g transform="translate(127.912614, 212.452457)"><g><path d="M 2.574219 -1.425781 C 3.5 -0.503906 4.730469 0 6.03125 0 C 7.347656 0 8.578125 -0.503906 9.503906 -1.425781 L 8.972656 -1.960938 C 7.347656 -0.351562 4.730469 -0.351562 3.105469 -1.960938 C 2.324219 -2.742188 1.902344 -3.792969 1.902344 -4.898438 C 1.902344 -6.003906 2.324219 -7.039062 3.105469 -7.824219 C 4.730469 -9.433594 7.347656 -9.433594 8.972656 -7.824219 L 9.503906 -8.355469 C 8.578125 -9.277344 7.347656 -9.796875 6.03125 -9.796875 C 4.730469 -9.796875 3.5 -9.277344 2.574219 -8.355469 C 1.652344 -7.429688 1.148438 -6.199219 1.148438 -4.898438 C 1.148438 -3.582031 1.652344 -2.351562 2.574219 -1.425781 Z M 2.574219 -1.425781 "/></g></g></g><g fill="#000000" fill-opacity="1"><g transform="translate(144.090668, 212.452457)"><g><path d="M 6.03125 0 C 8.734375 0 10.929688 -2.195312 10.929688 -4.898438 C 10.929688 -7.597656 8.734375 -9.796875 6.03125 -9.796875 C 3.34375 -9.796875 1.148438 -7.597656 1.148438 -4.898438 C 1.148438 -2.195312 3.34375 0 6.03125 0 Z M 6.03125 -9.027344 C 8.328125 -9.027344 10.175781 -7.179688 10.175781 -4.898438 C 10.175781 -2.601562 8.328125 -0.753906 6.03125 -0.753906 C 3.75 -0.753906 1.902344 -2.601562 1.902344 -4.898438 C 1.902344 -7.179688 3.75 -9.027344 6.03125 -9.027344 Z M 6.03125 -9.027344 "/></g></g></g><g fill="#000000" fill-opacity="1"><g transform="translate(161.695926, 212.452457)"><g><path d="M 1.148438 -9.796875 L 1.148438 0 L 1.902344 0 L 1.902344 -8.382812 L 9.054688 0 L 9.613281 0 L 9.613281 -9.796875 L 8.859375 -9.796875 L 8.859375 -1.398438 L 1.695312 -9.796875 Z M 1.148438 -9.796875 "/></g></g></g><g fill="#000000" fill-opacity="1"><g transform="translate(177.999911, 212.452457)"><g><path d="M 3.777344 -9.027344 L 6.96875 -9.027344 C 8.003906 -9.027344 8.859375 -8.1875 8.859375 -7.152344 L 9.613281 -7.152344 C 9.613281 -8.605469 8.425781 -9.796875 6.96875 -9.796875 L 3.777344 -9.796875 C 2.324219 -9.796875 1.148438 -8.605469 1.148438 -7.152344 C 1.148438 -5.695312 2.324219 -4.507812 3.777344 -4.507812 L 6.96875 -4.507812 C 8.003906 -4.507812 8.859375 -3.667969 8.859375 -2.632812 C 8.859375 -1.59375 8.003906 -0.753906 6.96875 -0.753906 L 3.777344 -0.753906 C 2.742188 -0.753906 1.902344 -1.59375 1.902344 -2.632812 L 1.148438 -2.632812 C 1.148438 -1.175781 2.324219 0 3.777344 0 L 6.96875 0 C 8.425781 0 9.613281 -1.175781 9.613281 -2.632812 C 9.613281 -4.085938 8.425781 -5.277344 6.96875 -5.277344 L 3.777344 -5.277344 C 2.742188 -5.277344 1.902344 -6.117188 1.902344 -7.152344 C 1.902344 -8.1875 2.742188 -9.027344 3.777344 -9.027344 Z M 3.777344 -9.027344 "/></g></g></g><g fill="#000000" fill-opacity="1"><g transform="translate(194.303895, 212.452457)"><g><path d="M 4.996094 0 L 5.75 0 L 5.75 -9.027344 L 9.613281 -9.027344 L 9.613281 -9.796875 L 1.148438 -9.796875 L 1.148438 -9.027344 L 4.996094 -9.027344 Z M 4.996094 0 "/></g></g></g><g fill="#000000" fill-opacity="1"><g transform="translate(210.607879, 212.452457)"><g><path d="M 10.0625 0 L 6.199219 -4.507812 L 6.96875 -4.507812 C 8.425781 -4.507812 9.613281 -5.695312 9.613281 -7.152344 C 9.613281 -8.605469 8.425781 -9.796875 6.96875 -9.796875 L 1.148438 -9.796875 L 1.148438 0 L 1.902344 0 L 1.902344 -4.507812 L 5.207031 -4.507812 L 9.054688 0 Z M 1.902344 -9.027344 L 6.96875 -9.027344 C 8.003906 -9.027344 8.859375 -8.1875 8.859375 -7.152344 C 8.859375 -6.117188 8.003906 -5.277344 6.96875 -5.277344 L 1.902344 -5.277344 Z M 1.902344 -9.027344 "/></g></g></g><g fill="#000000" fill-opacity="1"><g transform="translate(227.345617, 212.452457)"><g><path d="M 5.375 0 C 7.710938 0 9.613281 -1.890625 9.613281 -4.226562 L 9.613281 -9.796875 L 8.859375 -9.796875 L 8.859375 -4.226562 C 8.859375 -2.308594 7.292969 -0.753906 5.375 -0.753906 C 3.457031 -0.753906 1.902344 -2.308594 1.902344 -4.226562 L 1.902344 -9.796875 L 1.148438 -9.796875 L 1.148438 -4.226562 C 1.148438 -1.890625 3.035156 0 5.375 0 Z M 5.375 0 "/></g></g></g><g fill="#000000" fill-opacity="1"><g transform="translate(243.649602, 212.452457)"><g><path d="M 2.574219 -1.425781 C 3.5 -0.503906 4.730469 0 6.03125 0 C 7.347656 0 8.578125 -0.503906 9.503906 -1.425781 L 8.972656 -1.960938 C 7.347656 -0.351562 4.730469 -0.351562 3.105469 -1.960938 C 2.324219 -2.742188 1.902344 -3.792969 1.902344 -4.898438 C 1.902344 -6.003906 2.324219 -7.039062 3.105469 -7.824219 C 4.730469 -9.433594 7.347656 -9.433594 8.972656 -7.824219 L 9.503906 -8.355469 C 8.578125 -9.277344 7.347656 -9.796875 6.03125 -9.796875 C 4.730469 -9.796875 3.5 -9.277344 2.574219 -8.355469 C 1.652344 -7.429688 1.148438 -6.199219 1.148438 -4.898438 C 1.148438 -3.582031 1.652344 -2.351562 2.574219 -1.425781 Z M 2.574219 -1.425781 "/></g></g></g><g fill="#000000" fill-opacity="1"><g transform="translate(259.827656, 212.452457)"><g><path d="M 4.996094 0 L 5.75 0 L 5.75 -9.027344 L 9.613281 -9.027344 L 9.613281 -9.796875 L 1.148438 -9.796875 L 1.148438 -9.027344 L 4.996094 -9.027344 Z M 4.996094 0 "/></g></g></g><g fill="#000000" fill-opacity="1"><g transform="translate(276.13164, 212.452457)"><g><path d="M 6.03125 0 C 8.734375 0 10.929688 -2.195312 10.929688 -4.898438 C 10.929688 -7.597656 8.734375 -9.796875 6.03125 -9.796875 C 3.34375 -9.796875 1.148438 -7.597656 1.148438 -4.898438 C 1.148438 -2.195312 3.34375 0 6.03125 0 Z M 6.03125 -9.027344 C 8.328125 -9.027344 10.175781 -7.179688 10.175781 -4.898438 C 10.175781 -2.601562 8.328125 -0.753906 6.03125 -0.753906 C 3.75 -0.753906 1.902344 -2.601562 1.902344 -4.898438 C 1.902344 -7.179688 3.75 -9.027344 6.03125 -9.027344 Z M 6.03125 -9.027344 "/></g></g></g><g fill="#000000" fill-opacity="1"><g transform="translate(293.736898, 212.452457)"><g><path d="M 10.0625 0 L 6.199219 -4.507812 L 6.96875 -4.507812 C 8.425781 -4.507812 9.613281 -5.695312 9.613281 -7.152344 C 9.613281 -8.605469 8.425781 -9.796875 6.96875 -9.796875 L 1.148438 -9.796875 L 1.148438 0 L 1.902344 0 L 1.902344 -4.507812 L 5.207031 -4.507812 L 9.054688 0 Z M 1.902344 -9.027344 L 6.96875 -9.027344 C 8.003906 -9.027344 8.859375 -8.1875 8.859375 -7.152344 C 8.859375 -6.117188 8.003906 -5.277344 6.96875 -5.277344 L 1.902344 -5.277344 Z M 1.902344 -9.027344 "/></g></g></g><g fill="#000000" fill-opacity="1"><g transform="translate(310.474636, 212.452457)"><g><path d="M 5.316406 -9.796875 L 1.148438 0 L 1.960938 0 L 2.839844 -2.042969 L 8.300781 -2.042969 L 9.179688 0 L 10.007812 0 L 5.820312 -9.796875 Z M 3.164062 -2.800781 L 5.570312 -8.4375 L 7.976562 -2.800781 Z M 3.164062 -2.800781 "/></g></g></g></svg>